# xmcd CD database file generated by Grip 3.2.0
# 
# Track frame offsets:
#       150
#       34099
#       60628
#       79860
#       101799
#       116386
#       134039
#       153968
#       169451
#       186819
#       206059
#       228766
#       250025
#       267164
#       286850
# 
# Disc length: 4067 seconds
# 
# Revision: 4
# Processed by: cddbd v1.5.2PL0 Copyright (c) Steve Scherf et al.
# Submitted via: Grip 3.2.0
# 
DISCID=d00fe10f
DTITLE=Various Artist - New York City Salsa Vol. 1 [CD 1)
DYEAR=2007
DGENRE=Salsa
TTITLE0=Tipica 73 - Soneramos El Tambor
TTITLE1=Mark Dimond and Frankie Dante - Los Rumberos
TTITLE2=Sonora Ponceña - Tumba La Caña Jibarito
TTITLE3=Latin Tempo - El Destino
TTITLE4=Cabrerita - Sobre Salsa
TTITLE5=Rafi Val and La Diferente - A Mi Nena
TTITLE6=Larry Harlow Orquesta - Guasasa
TTITLE7=Wuelfo Y El Sonido De La 4 - Bueno Y Pico
TTITLE8=Baby Gonzalez Y Orquesta Riviera - Asi Es La Humanidad
TTITLE9=Ray Barretto - La Pelota
TTITLE10=Willie Colon and Hector Lavoe - Todo Tiene Su Final
TTITLE11=Tito Allen - Maldades
TTITLE12=Cheo Feliciano - Esto Es El Guaguanco
TTITLE13=Mongo Santamaria and Justo Betancourt - Come Candela
TTITLE14=Frankie Dante Y Orquesta Flamboyan - Presidente Dante
EXTD=YEAR: 2007
EXTT0=
EXTT1=
EXTT2=
EXTT3=
EXTT4=
EXTT5=
EXTT6=
EXTT7=
EXTT8=
EXTT9=
EXTT10=
EXTT11=
EXTT12=
EXTT13=
EXTT14=
PLAYORDER=
